<?xml version="1.0" encoding="utf-8"?>
<!-- Generator: Adobe Illustrator 22.0.1, SVG Export Plug-In . SVG Version: 6.00 Build 0)  -->
<svg version="1.1" xmlns="http://www.w3.org/2000/svg" xmlns:xlink="http://www.w3.org/1999/xlink" x="0px" y="0px"
	 viewBox="0 0 110.8 128" style="enable-background:new 0 0 110.8 128;" xml:space="preserve">
<style type="text/css">
	.st0{fill:#2E3338;}
	.st1{opacity:0.13;}
	.st2{fill:#ABADAF;}
	.st3{display:none;}
	.st4{display:inline;fill:#FFFFFF;}
	.st5{enable-background:new    ;}
	.st6{fill:#FFFFFF;}
	.st7{fill:#52B6FF;}
	.st8{fill:#0CDA6E;}
	.st9{fill:#FF6553;}
	.st10{display:inline;fill:#FFFFFF;stroke:#FFFFFF;stroke-miterlimit:10;}
	.st11{display:inline;fill:none;stroke:#FFFFFF;stroke-miterlimit:10;}
	.st12{fill:none;stroke:#FFFFFF;stroke-width:0.75;stroke-miterlimit:10;}
</style>
<g id="Total">
	<g id="Layer_63">
		<polygon class="st0" points="110.8,32 110.8,96 55.4,128 11.1,102.4 10.9,102.3 0,96 0,32 55.4,0 		"/>
	</g>
	<g id="Layer_63-3" class="st1">
		<path class="st2" d="M55.4,10.9l-46,26.6v53.1l46,26.6l46-26.6V37.4L55.4,10.9z M99.7,89.5L55.5,115L11.4,89.5v-51L55.5,13
			l44.2,25.5V89.5z"/>
	</g>
	<g class="st3">
		<path id="Bottom_Ring" class="st4" d="M48.6,89.5c10.3,0,18.7-8.4,18.7-18.7s-8.4-18.7-18.7-18.7S30,60.5,30,70.8
			S38.3,89.5,48.6,89.5z M48.6,96.2c-14,0-25.4-11.4-25.4-25.5s11.4-25.5,25.4-25.5S74,56.6,74,70.7S62.7,96.2,48.6,96.2z"/>
		<path id="Top_Ring" class="st4" d="M62.2,75.9c10.3,0,18.7-8.4,18.7-18.7s-8.4-18.7-18.7-18.7s-18.7,8.4-18.7,18.7
			S51.9,75.9,62.2,75.9z M62.2,82.7c-14,0-25.4-11.4-25.4-25.5s11.4-25.5,25.4-25.5s25.4,11.4,25.4,25.5S76.2,82.7,62.2,82.7z"/>
	</g>
	<g class="st5">
		<path class="st6" d="M11.5,99.5c0.5,0.3,1.1,0.3,1.4,0.1l-0.4,0.7c-0.4,0.1-0.9,0-1.3-0.3c-0.9-0.6-1.2-1.7-0.6-2.6
			c0.6-1,1.7-1.2,2.6-0.7c0.4,0.3,0.8,0.7,0.9,1.1l-0.4,0.7c0-0.4-0.2-0.9-0.8-1.2c-0.6-0.4-1.4-0.2-1.8,0.5
			C10.7,98.4,10.9,99.1,11.5,99.5z"/>
		<path class="st6" d="M13.9,99.4c0.6-1,1.6-1.3,2.6-0.7c0.9,0.6,1.1,1.5,0.5,2.5c0,0.1-0.1,0.1-0.1,0.2l-2.5-1.5
			c-0.3,0.7-0.2,1.2,0.4,1.6c0.4,0.3,0.9,0.3,1.3,0l0.3,0.5c-0.6,0.3-1.3,0.3-2-0.1C13.5,101.4,13.3,100.4,13.9,99.4z M14.6,99.4
			l1.9,1.1c0.3-0.5,0.1-1.1-0.4-1.4C15.6,98.8,15.1,98.9,14.6,99.4z"/>
		<path class="st6" d="M20.5,98.2l-3.2,5.3l-0.5-0.3l3.2-5.3L20.5,98.2z"/>
		<path class="st6" d="M21.6,101.8c0.9,0.6,1.2,1.7,0.6,2.6c-0.6,1-1.7,1.2-2.6,0.7c-0.9-0.6-1.2-1.7-0.6-2.6
			C19.5,101.5,20.7,101.2,21.6,101.8z M19.9,104.6c0.6,0.4,1.4,0.2,1.8-0.5s0.2-1.4-0.4-1.8s-1.4-0.2-1.8,0.5S19.3,104.2,19.9,104.6
			z"/>
	</g>
	<g class="st5">
		<path class="st6" d="M72.9,109.5l1.2,2.1l0.7-3.2l0.7-0.4l-0.8,3.5l3.7,1.3l-0.7,0.4l-3.4-1.2l1.4,2.4l-0.6,0.3l-2.8-4.9
			L72.9,109.5z"/>
		<path class="st6" d="M76.8,107.3l1.9,3.3c0.4,0.7,1,0.9,1.7,0.5c0.7-0.4,0.8-1.1,0.4-1.7l-1.9-3.3l0.6-0.3l1.9,3.3
			c0.6,1,0.3,2-0.7,2.6c-1,0.6-2.1,0.2-2.6-0.7l-1.9-3.3L76.8,107.3z"/>
		<path class="st6" d="M84.9,102.6l2.9,5.1l-5.9-1.7l2.1,3.6l-0.6,0.3l-2.9-5.1l5.9,1.7l-2.1-3.6L84.9,102.6z"/>
		<path class="st6" d="M88.7,100.4l0.3,0.6l-2.2,1.3l0.8,1.4l2-1.2L90,103l-2,1.2l1,1.8l2.2-1.3l0.3,0.6l-2.8,1.6L86,102L88.7,100.4
			z"/>
		<path class="st6" d="M94.4,102.9c0.7-0.4,1.1-1,1.1-1.6l0.4,0.8c-0.2,0.6-0.5,1-1.3,1.4c-1.3,0.8-3,0.3-3.9-1.1
			c-0.8-1.4-0.3-3.1,1-3.9c0.7-0.4,1.3-0.5,1.9-0.4l0.4,0.8c-0.6-0.2-1.3-0.2-2,0.2c-1,0.5-1.4,1.8-0.7,2.9
			C92.2,103.2,93.5,103.5,94.4,102.9z"/>
		<path class="st6" d="M96.7,95.8c1.4-0.8,3.1-0.3,3.9,1.1c0.8,1.4,0.4,3.1-1,3.9c-1.4,0.8-3.1,0.3-3.9-1.1
			C94.8,98.2,95.3,96.6,96.7,95.8z M99.2,100.2c1.1-0.6,1.4-1.9,0.7-3c-0.6-1.1-1.9-1.5-2.9-0.9c-1.1,0.6-1.4,1.9-0.7,3
			C96.9,100.4,98.2,100.8,99.2,100.2z"/>
	</g>
	<ellipse transform="matrix(0.5 -0.866 0.866 0.5 -1.6801 86.1373)" class="st7" cx="73.8" cy="44.5" rx="7.9" ry="4.6"/>
	<ellipse transform="matrix(0.5 -0.866 0.866 0.5 -15.0391 51.9501)" class="st8" cx="37.5" cy="39" rx="7.9" ry="4.6"/>
	<ellipse transform="matrix(0.5 -0.866 0.866 0.5 1.2438 65.767)" class="st9" cx="57.6" cy="31.8" rx="7.9" ry="4.6"/>
	<g class="st3">
		
			<image style="display:inline;overflow:visible;" width="658" height="777" xlink:href="253275B1.png"  transform="matrix(0.1344 0 0 0.1344 11.2896 9.7284)">
		</image>
		<line class="st10" x1="11.5" y1="48" x2="14" y2="47.5"/>
		<line class="st10" x1="24.2" y1="55.3" x2="14" y2="47.5"/>
		<line class="st11" x1="12.8" y1="63.2" x2="34.8" y2="51.4"/>
		<line class="st11" x1="47" y1="47.8" x2="34.8" y2="51.4"/>
		<line class="st11" x1="57" y1="53.3" x2="47" y2="47.8"/>
		<line class="st11" x1="77.5" y1="40.3" x2="57" y2="53.3"/>
		<line class="st11" x1="86.7" y1="42" x2="77.5" y2="40.3"/>
		<line class="st11" x1="99.7" y1="53" x2="86.7" y2="42"/>
		<line class="st11" x1="85.3" y1="68" x2="99.7" y2="67.7"/>
		<line class="st11" x1="21.2" y1="67.8" x2="11.3" y2="68.3"/>
	</g>
	<circle class="st12" cx="72.9" cy="66.8" r="2.7"/>
	<path class="st12" d="M66.6,62.4c0,12.4,3.6,24.5,4.6,36.9l1.4-14.5l4.9,15.4c-2.2-12.3-1.8-24,3.5-35.5c-0.5,1.4-6.6,7.8-8.8,7.4
		C70,71.7,66.6,62.4,66.6,62.4z"/>
	<path class="st12" d="M31.5,81.3c0-9.8,3.1-17.7,7-17.7"/>
	<path class="st12" d="M45.3,80.5c0-9.4-3.1-16.9-6.9-16.9"/>
	<ellipse class="st12" cx="38.5" cy="57.4" rx="3.3" ry="3.9"/>
	<line class="st12" x1="41.5" y1="65.4" x2="46.9" y2="47.6"/>
	<line class="st12" x1="43.8" y1="69.9" x2="46.9" y2="47.6"/>
	<path class="st12" d="M33.9,67.9c0-10.1,0-16.9,0.1-17.6"/>
	<path class="st12" d="M31.9,74.9c0-13.6,1.1-24.5,2.5-24.5"/>
	<path class="st12" d="M31.5,80.9c0-0.4,6.2-0.7,13.9-0.7"/>
	<path class="st12" d="M35.5,80.7c0,9.4-0.3,16.9-0.6,16.9"/>
	<path class="st12" d="M32.1,80.9c0,9.1,2,16.8,2.9,16.8"/>
	<path class="st12" d="M43,80.2c0,9.4-0.3,16.9-0.6,16.9"/>
	<path class="st12" d="M40.7,80.7c0,9.1,0.8,16.4,1.7,16.4"/>
	<path class="st12" d="M66.2,60.4"/>
	<path class="st12" d="M57,68.8"/>
	<ellipse class="st12" cx="57" cy="59.8" rx="2.4" ry="3.8"/>
	<path class="st12" d="M50.9,83c0,7.7,0,14,0,14"/>
	<path class="st12" d="M57.3,81.6c0,8.5,0.1,15.4,0.2,15.4"/>
	<path class="st12" d="M50.9,97c0-7,1.2-12.7,2.7-12.7"/>
	<path class="st12" d="M57.6,97c0-7-1.8-12.7-4-12.7"/>
	<path class="st12" d="M57.3,81.6c0-6.5,8.8-21.2,8.9-21.2"/>
	<path class="st12" d="M50.9,83c0-7.1-3.8-34.6-4.6-34.6"/>
	<path class="st12" d="M58.4,66.6"/>
	<path class="st12" d="M47.2,48.1"/>
	<path class="st12" d="M46.8,48.3c0,4.5,3.9,15.7,9.7,17.8c2.9,1,6.2-5.8,9.7-5.8"/>
</g>
<g id="Layer_2">
</g>
</svg>
